<svg width="735" height="616" viewBox="0 0 735 616" fill="none" xmlns="http://www.w3.org/2000/svg">
<path d="M586.358 88.3716C584.289 90.7596 582.893 93.6556 582.313 96.7618L574.241 101.295V79.8684L574.392 80.0754L587.28 70.6693C591.911 71.3744 596.647 70.6389 600.846 68.5624C607.469 65.0069 612.286 52.7978 612.286 52.7978C612.286 52.7978 596.519 51.0106 591.175 57.6325C588.254 61.0644 586.694 65.4489 586.791 69.9545L574.241 79.1536V63.3326C576.592 62.2368 578.669 60.6318 580.322 58.634C581.975 56.6362 583.163 54.2956 583.8 51.7819C586.095 42.8838 573.884 25.332 573.884 25.332C573.884 25.332 561.146 43.3729 563.78 52.5156C564.378 54.9726 565.574 57.244 567.261 59.1278C568.948 61.0116 571.074 62.4496 573.451 63.3138V97.6648L564.382 90.1399C564.58 87.7398 564.267 85.325 563.463 83.0551C562.658 80.7851 561.381 78.7115 559.716 76.9714C553.62 70.105 537.345 70.6129 537.345 70.6129C537.345 70.6129 544.213 84.3458 550.045 88.9171C555.163 92.9241 562.219 91.2875 563.912 90.7983L573.451 98.7559V109.178H559.284L565.06 145.335H582.426L588.202 109.178H574.317V102.274L583.197 97.3073C587.807 98.631 592.739 98.2641 597.102 96.2726C602.109 93.419 606.517 89.6246 610.084 85.0983C610.084 85.0983 592.944 80.7338 586.358 88.3716Z" fill="#24DA8B"/>
<path d="M479.64 16.3789H289.081V31.8613H479.64V16.3789Z" fill="white"/>
<path d="M479.64 39.5898H289.081V55.0723H479.64V39.5898Z" fill="white"/>
<path d="M479.64 62.8047H289.081V78.2871H479.64V62.8047Z" fill="white"/>
<path d="M479.64 86.0391H289.081V101.521H479.64V86.0391Z" fill="white"/>
<path d="M479.64 109.254H289.081V124.736H479.64V109.254Z" fill="white"/>
<path d="M479.64 132.469H289.081V147.951H479.64V132.469Z" fill="white"/>
<path d="M479.64 155.68H289.081V171.162H479.64V155.68Z" fill="white"/>
<path d="M479.64 178.895H289.081V194.377H479.64V178.895Z" fill="white"/>
<path d="M479.64 202.109H289.081V217.592H479.64V202.109Z" fill="white"/>
<path d="M479.64 225.324H289.081V240.807H479.64V225.324Z" fill="white"/>
<path d="M479.64 248.539H289.081V264.021H479.64V248.539Z" fill="white"/>
<path d="M479.64 271.754H289.081V287.236H479.64V271.754Z" fill="white"/>
<path d="M479.64 294.984H289.081V310.467H479.64V294.984Z" fill="white"/>
<path d="M276.475 16.3789H85.916V31.8613H276.475V16.3789Z" fill="white"/>
<path d="M276.475 39.5898H85.916V55.0723H276.475V39.5898Z" fill="white"/>
<path d="M276.475 62.8047H85.916V78.2871H276.475V62.8047Z" fill="white"/>
<path d="M276.475 86.0391H85.916V101.521H276.475V86.0391Z" fill="white"/>
<path d="M276.475 109.254H85.916V124.736H276.475V109.254Z" fill="white"/>
<path d="M276.475 132.469H85.916V147.951H276.475V132.469Z" fill="white"/>
<path d="M276.475 155.68H85.916V171.162H276.475V155.68Z" fill="white"/>
<path d="M276.475 178.895H85.916V194.377H276.475V178.895Z" fill="white"/>
<path d="M276.475 202.109H85.916V217.592H276.475V202.109Z" fill="white"/>
<path d="M276.475 225.324H85.916V240.807H276.475V225.324Z" fill="white"/>
<path d="M276.475 248.539H85.916V264.021H276.475V248.539Z" fill="white"/>
<path d="M276.475 271.754H85.916V287.236H276.475V271.754Z" fill="white"/>
<path d="M276.475 294.984H85.916V310.467H276.475V294.984Z" fill="white"/>
<path d="M489.104 1.10156H76.4331V12.3889H489.104V1.10156Z" stroke="#263238" stroke-miterlimit="10"/>
<path d="M76.7154 384.23H57.9004V614.999H76.7154V384.23Z" stroke="#263238" stroke-miterlimit="10"/>
<path d="M510.722 384.23H491.907V614.999H510.722V384.23Z" stroke="#263238" stroke-miterlimit="10"/>
<path d="M82.9998 327.793H486.639C493.865 327.793 500.794 330.663 505.904 335.771C511.013 340.88 513.883 347.808 513.883 355.033V395.987H55.7744V355.052C55.7719 351.475 56.4742 347.932 57.8411 344.626C59.2079 341.32 61.2126 338.316 63.7408 335.785C66.2689 333.253 69.2709 331.245 72.5753 329.874C75.8798 328.502 79.422 327.795 82.9998 327.793Z" fill="#24DA8B" stroke="#24DA8B" stroke-miterlimit="10"/>
<path d="M94.063 376.234H500.731" stroke="#263238" stroke-miterlimit="10"/>
<path d="M62.5103 376.234H73.7805" stroke="#263238" stroke-miterlimit="10"/>
<path d="M42.8483 495.859H24.0332V614.997H42.8483V495.859Z" stroke="#263238" stroke-miterlimit="10"/>
<path d="M169.549 495.859H150.734V614.997H169.549V495.859Z" stroke="#263238" stroke-miterlimit="10"/>
<path d="M49.1326 439.426H145.372C152.597 439.426 159.527 442.296 164.636 447.404C169.745 452.513 172.616 459.441 172.616 466.666V507.62H21.9072V466.666C21.9072 459.445 24.775 452.519 29.8802 447.411C34.9854 442.303 41.9103 439.431 49.1326 439.426Z" fill="#24DA8B" stroke="#24DA8B" stroke-miterlimit="10"/>
<path d="M651.214 164.129H563.404V581.759H651.214V164.129Z" stroke="#263238" stroke-miterlimit="10"/>
<path d="M698.873 164.129H661.243V581.759H698.873" stroke="#263238" stroke-miterlimit="10"/>
<path d="M549.613 614.379V145.316H667.508" stroke="#263238" stroke-miterlimit="10"/>
<path d="M643.67 348.488H633.641V387.373H643.67V348.488Z" stroke="#263238" stroke-miterlimit="10"/>
<path d="M678.797 348.488H668.769V387.373H678.797V348.488Z" stroke="#263238" stroke-miterlimit="10"/>
<path d="M432.433 101.052C432.433 101.052 432.809 110.947 430.551 116.797C428.293 122.648 429.46 135.12 430.194 137.303C430.927 139.485 427.992 146.84 427.992 146.84L434.954 156.359C434.954 156.359 443.007 144.263 447.033 137.679C451.059 131.095 456.986 125.225 455.086 121.557C453.186 117.888 447.409 110.57 447.033 108.746C446.657 106.921 443.27 105.096 443.27 105.096L437.419 118.265C437.419 118.265 436.327 108.746 436.327 104.362C436.327 99.9792 433.543 97.7594 432.433 101.052Z" fill="white"/>
<mask id="mask0_2390_86" style="mask-type:luminance" maskUnits="userSpaceOnUse" x="427" y="99" width="29" height="58">
<path d="M432.433 101.052C432.433 101.052 432.809 110.947 430.551 116.797C428.293 122.648 429.46 135.12 430.194 137.303C430.927 139.485 427.992 146.84 427.992 146.84L434.954 156.359C434.954 156.359 443.007 144.263 447.033 137.679C451.059 131.095 456.986 125.225 455.086 121.557C453.186 117.888 447.409 110.57 447.033 108.746C446.657 106.921 443.27 105.096 443.27 105.096L437.419 118.265C437.419 118.265 436.327 108.746 436.327 104.362C436.327 99.9792 433.543 97.7594 432.433 101.052Z" fill="white"/>
</mask>
<g mask="url(#mask0_2390_86)">
<path opacity="0.15" d="M432.433 101.052C432.433 101.052 432.809 110.947 430.551 116.797C428.293 122.648 429.46 135.12 430.194 137.303C430.927 139.485 427.992 146.84 427.992 146.84L434.954 156.359C434.954 156.359 443.007 144.263 447.033 137.679C451.059 131.095 456.986 125.225 455.086 121.557C453.186 117.888 447.409 110.57 447.033 108.746C446.657 106.921 443.27 105.096 443.27 105.096L437.419 118.265C437.419 118.265 436.327 108.746 436.327 104.362C436.327 99.9792 433.543 97.7594 432.433 101.052Z" fill="black" stroke="#263238" stroke-linecap="round" stroke-linejoin="round"/>
</g>
<path d="M432.433 101.052C432.433 101.052 432.809 110.947 430.551 116.797C428.293 122.648 429.46 135.12 430.194 137.303C430.927 139.485 427.992 146.84 427.992 146.84L434.954 156.359C434.954 156.359 443.007 144.263 447.033 137.679C451.059 131.095 456.986 125.225 455.086 121.557C453.186 117.888 447.409 110.57 447.033 108.746C446.657 106.921 443.27 105.096 443.27 105.096L437.419 118.265C437.419 118.265 436.327 108.746 436.327 104.362C436.327 99.9792 433.543 97.7594 432.433 101.052Z" stroke="#263238" stroke-linecap="round" stroke-linejoin="round"/>
<path d="M426.581 144.695L441.238 159.331C441.238 159.331 395.085 235.878 390.324 238.06C385.564 240.242 367.615 225.588 367.615 225.588L355.517 158.917C355.517 158.917 371.66 167.59 377.154 176.732C382.648 185.875 386.298 186.759 386.298 186.759L426.581 144.695Z" fill="white"/>
<mask id="mask1_2390_86" style="mask-type:luminance" maskUnits="userSpaceOnUse" x="355" y="144" width="87" height="95">
<path d="M426.581 144.695L441.238 159.331C441.238 159.331 395.085 235.878 390.324 238.06C385.564 240.242 367.615 225.588 367.615 225.588L355.517 158.917C355.517 158.917 371.66 167.59 377.154 176.732C382.648 185.875 386.298 186.759 386.298 186.759L426.581 144.695Z" fill="white"/>
</mask>
<g mask="url(#mask1_2390_86)">
<path d="M383.514 207.436C382.065 207.436 380.597 201.096 380.597 197.691C380.597 194.286 372.808 200.626 372.808 200.626L364.059 188.943L361.218 190.317L367.615 225.571C367.615 225.571 385.564 240.207 390.325 238.005C395.085 235.804 436.252 167.516 440.824 159.973C429.573 169.51 384.793 207.436 383.514 207.436Z" fill="#24DA8B"/>
<path opacity="0.5" d="M383.514 207.436C382.065 207.436 380.597 201.096 380.597 197.691C380.597 194.286 372.808 200.626 372.808 200.626L364.059 188.943L361.218 190.317L367.615 225.571C367.615 225.571 385.564 240.207 390.325 238.005C395.085 235.804 436.252 167.516 440.824 159.973C429.573 169.51 384.793 207.436 383.514 207.436Z" fill="white"/>
</g>
<path d="M426.581 144.695L441.238 159.331C441.238 159.331 395.085 235.878 390.324 238.06C385.564 240.242 367.615 225.588 367.615 225.588L355.517 158.917C355.517 158.917 371.66 167.59 377.154 176.732C382.648 185.875 386.298 186.759 386.298 186.759L426.581 144.695Z" stroke="#263238" stroke-linecap="round" stroke-linejoin="round"/>
<path d="M379.487 210.78C380.428 202.315 386.298 186.738 386.298 186.738C386.298 186.738 378.546 197.612 376.194 203.255" stroke="#263238" stroke-linecap="round" stroke-linejoin="round"/>
<path d="M341.857 584.898C347.832 590.009 354.685 593.993 362.083 596.656C374.784 601.359 380.428 604.181 382.31 608.414C384.191 612.646 382.31 614.998 382.31 614.998H301.875C301.875 614.998 297.642 608.414 304.697 595.245C311.753 582.077 341.857 584.898 341.857 584.898Z" fill="white" stroke="#263238" stroke-linecap="round" stroke-linejoin="round"/>
<path d="M344.736 587.684C344.736 587.684 338.169 590.562 340.22 591.785C342.271 593.007 347.596 590.148 347.596 590.148C347.596 590.148 341.048 595.077 344.322 595.491C347.596 595.904 352.525 593.026 352.525 593.026C352.525 593.026 348.009 598.764 350.06 599.178C352.111 599.592 357.436 595.415 357.436 595.415" stroke="#263238" stroke-linecap="round" stroke-linejoin="round"/>
<path d="M301.141 609.072L382.309 608.414" stroke="#263238" stroke-linecap="round" stroke-linejoin="round"/>
<path d="M372.902 384.077C372.902 384.077 363.494 460.737 362.083 479.078C360.672 497.42 347.972 529.401 345.62 537.396C343.214 547.439 341.641 557.664 340.916 567.966C341.359 572.41 342.145 576.812 343.268 581.134C343.268 581.134 344.209 585.367 335.272 587.248C326.335 589.13 309.871 591.951 309.871 591.951C309.871 591.951 303.757 590.07 304.227 572.199C304.697 554.327 305.638 521.406 309.871 505.886C314.105 490.366 319.749 464.969 321.161 459.796C322.572 454.623 319.279 369.498 319.279 369.498L371.961 369.027L372.902 384.077Z" fill="#263238" stroke="#263238" stroke-linecap="round" stroke-linejoin="round"/>
<path d="M304.698 584.898C310.672 590.009 317.526 593.993 324.924 596.656C337.624 601.359 343.268 604.181 345.15 608.414C347.031 612.646 345.15 614.998 345.15 614.998H264.716C264.716 614.998 260.482 608.414 267.538 595.245C274.593 582.077 304.698 584.898 304.698 584.898Z" fill="white" stroke="#263238" stroke-linecap="round" stroke-linejoin="round"/>
<path d="M314.387 591.391C314.387 591.391 304.133 597.128 305.77 597.937C307.407 598.746 317.661 593.836 317.661 593.836C317.661 593.836 311.922 600.402 315.196 599.988C318.47 599.574 322.177 595.492 322.177 595.492C322.177 595.492 318.884 602.452 321.349 601.643C323.389 600.652 325.207 599.257 326.692 597.542" stroke="#263238" stroke-linecap="round" stroke-linejoin="round"/>
<path d="M263.699 607.172L345.15 608.413" stroke="#263238" stroke-linecap="round" stroke-linejoin="round"/>
<path d="M277.886 364.328C277.886 364.328 280.708 437.696 280.238 451.805C279.767 465.914 272.241 481.434 271.301 498.365C270.36 515.296 263.624 581.872 263.624 589.397C263.624 596.922 263.944 598.351 264.414 599.762C264.885 601.173 276.475 598.069 283.06 595.718C289.645 593.366 312.261 590.996 312.261 590.996C312.261 590.996 308.498 583.96 308.498 578.787C308.498 573.613 307.557 565.148 308.498 562.326C309.439 559.504 315.083 500.716 318.846 489.899C322.609 479.082 329.194 443.339 329.665 429.7C330.135 416.062 335.78 369.972 335.78 369.972C335.78 369.972 298.112 371.383 277.886 364.328Z" fill="#263238" stroke="#263238" stroke-linecap="round" stroke-linejoin="round"/>
<path d="M337.417 420.293C337.642 417.471 337.774 414.838 337.774 412.43" stroke="white" stroke-linecap="round" stroke-linejoin="round"/>
<path d="M312.261 586.196V571.861C312.261 564.675 318.64 528.8 324.209 496.914C328.348 473.286 333.804 448.773 336.344 429.867" stroke="white" stroke-linecap="round" stroke-linejoin="round"/>
<path d="M287.783 134.272C287.783 134.272 270.567 150.018 269.099 151.203C267.632 152.388 254.442 173.891 250.792 182.318C247.142 190.746 250.416 206.492 252.674 219.943C254.932 233.393 269.156 276.699 269.156 276.699L265.487 386.186C265.487 386.186 290.755 396.815 304.998 399.354C319.241 401.894 341.989 400.822 341.989 400.822L346.749 377.024L352.6 399.712C352.6 399.712 374.934 397.153 385.188 385.81L372.751 246.28L365.79 183.654C365.79 183.654 363.908 168.604 360.296 162.058C356.683 155.511 336.852 142.644 322.929 137.602C309.006 132.56 287.783 134.272 287.783 134.272Z" fill="white"/>
<mask id="mask2_2390_86" style="mask-type:luminance" maskUnits="userSpaceOnUse" x="249" y="133" width="137" height="269">
<path d="M287.783 134.272C287.783 134.272 270.567 150.018 269.099 151.203C267.632 152.388 254.442 173.891 250.792 182.318C247.142 190.746 250.416 206.492 252.674 219.943C254.932 233.393 269.156 276.699 269.156 276.699L265.487 386.186C265.487 386.186 290.755 396.815 304.998 399.354C319.241 401.894 341.989 400.822 341.989 400.822L346.749 377.024L352.6 399.712C352.6 399.712 374.934 397.153 385.188 385.81L372.751 246.28L365.79 183.654C365.79 183.654 363.908 168.604 360.296 162.058C356.683 155.511 336.852 142.644 322.929 137.602C309.006 132.56 287.783 134.272 287.783 134.272Z" fill="white"/>
</mask>
<g mask="url(#mask2_2390_86)">
<path d="M302.251 229.347L265.75 209.895L267.293 195.843C267.293 195.843 254.574 193.849 257.49 185.571C260.407 177.294 272.147 161.623 274.537 156.337C276.926 151.051 290.097 141.287 290.097 141.287L295.346 133.988C290.812 133.988 287.82 134.289 287.82 134.289C287.82 134.289 270.604 150.035 269.137 151.22C267.669 152.405 254.48 173.908 250.83 182.336C247.18 190.763 250.454 206.509 252.711 219.96C254.969 233.411 269.193 276.716 269.193 276.716L265.524 386.203C265.524 386.203 271.526 388.724 279.335 391.602C278.262 351.607 276.343 275.625 277.058 274.553C278.036 273.104 295.064 249.739 299.918 244.453C304.773 239.167 278.526 245.902 279.974 244.942C281.423 243.983 302.251 229.347 302.251 229.347Z" fill="#24DA8B"/>
<path opacity="0.5" d="M302.251 229.347L265.75 209.895L267.293 195.843C267.293 195.843 254.574 193.849 257.49 185.571C260.407 177.294 272.147 161.623 274.537 156.337C276.926 151.051 290.097 141.287 290.097 141.287L295.346 133.988C290.812 133.988 287.82 134.289 287.82 134.289C287.82 134.289 270.604 150.035 269.137 151.22C267.669 152.405 254.48 173.908 250.83 182.336C247.18 190.763 250.454 206.509 252.711 219.96C254.969 233.411 269.193 276.716 269.193 276.716L265.524 386.203C265.524 386.203 271.526 388.724 279.335 391.602C278.262 351.607 276.343 275.625 277.058 274.553C278.036 273.104 295.064 249.739 299.918 244.453C304.773 239.167 278.526 245.902 279.974 244.942C281.423 243.983 302.251 229.347 302.251 229.347Z" fill="white"/>
<path d="M337.153 211.945C337.153 211.945 349.741 332.87 346.749 377.06Z" fill="white"/>
<path d="M337.153 211.945C337.153 211.945 349.741 332.87 346.749 377.06" stroke="#263238" stroke-linecap="round" stroke-linejoin="round"/>
<path d="M281.649 314.473L319.749 319.646V329.522L282.119 323.408L281.649 314.473Z" stroke="#263238" stroke-linecap="round" stroke-linejoin="round"/>
<path d="M377.135 321.055L365.376 325.288L363.965 315.882L373.372 312.59" stroke="#263238" stroke-linecap="round" stroke-linejoin="round"/>
</g>
<path d="M287.783 134.272C287.783 134.272 270.567 150.018 269.099 151.203C267.632 152.388 254.442 173.891 250.792 182.318C247.142 190.746 250.416 206.492 252.674 219.943C254.932 233.393 269.156 276.699 269.156 276.699L265.487 386.186C265.487 386.186 290.755 396.815 304.998 399.354C319.241 401.894 341.989 400.822 341.989 400.822L346.749 377.024L352.6 399.712C352.6 399.712 374.934 397.153 385.188 385.81L372.751 246.28L365.79 183.654C365.79 183.654 363.908 168.604 360.296 162.058C356.683 155.511 336.852 142.644 322.929 137.602C309.006 132.56 287.783 134.272 287.783 134.272Z" stroke="#263238" stroke-linecap="round" stroke-linejoin="round"/>
<path d="M285.581 137.171C285.581 137.171 318.169 176.356 323.663 186.609C329.157 196.861 337.228 209.315 337.228 209.315C337.228 209.315 337.586 174.513 332.826 158.409C328.065 142.306 322.948 139.409 322.948 139.409C320.236 136.629 316.873 134.569 313.164 133.416C309.454 132.263 305.516 132.053 301.706 132.806C287.782 135.007 285.581 137.171 285.581 137.171Z" fill="white" stroke="#263238" stroke-linecap="round" stroke-linejoin="round"/>
<path d="M336.363 182.488L328.423 166.14V151.862L317.435 140.574L316.344 158.878L324.397 168.04L328.16 194.584C332.732 202.41 337.285 209.427 337.285 209.427C337.285 209.427 337.36 196.296 336.363 182.488Z" fill="#263238" stroke="#263238" stroke-linecap="round" stroke-linejoin="round"/>
<path d="M322.195 148.926L332.826 158.445L323.663 136.473C323.663 136.473 319.637 146.725 322.195 148.926Z" fill="white" stroke="#263238" stroke-linecap="round" stroke-linejoin="round"/>
<path d="M299.128 53.3441C299.128 53.3441 284.49 59.9472 278.262 71.6672C272.034 83.3871 281.178 97.6656 284.113 101.315C286.219 103.84 288.549 106.17 291.075 108.276L294.01 111.568L294.368 128.047L321.066 150.753L328.385 127.314C328.385 127.314 340.841 124.755 342.685 119.996C344.529 115.236 339.016 85.9456 337.548 80.0762C336.081 74.2068 331.697 62.8819 331.697 62.8819C331.697 62.8819 333.145 57.3887 324.735 52.253C316.325 47.1173 299.128 53.3441 299.128 53.3441Z" fill="white"/>
<mask id="mask3_2390_86" style="mask-type:luminance" maskUnits="userSpaceOnUse" x="276" y="50" width="68" height="101">
<path d="M299.128 53.3441C299.128 53.3441 284.49 59.9472 278.262 71.6672C272.034 83.3871 281.178 97.6656 284.113 101.315C286.219 103.84 288.549 106.17 291.075 108.276L294.01 111.568L294.368 128.047L321.066 150.753L328.385 127.314C328.385 127.314 340.841 124.755 342.685 119.996C344.529 115.236 339.016 85.9456 337.548 80.0762C336.081 74.2068 331.697 62.8819 331.697 62.8819C331.697 62.8819 333.145 57.3887 324.735 52.253C316.325 47.1173 299.128 53.3441 299.128 53.3441Z" fill="white"/>
</mask>
<g mask="url(#mask3_2390_86)">
<g opacity="0.15">
<path d="M299.128 53.3441C299.128 53.3441 284.49 59.9472 278.262 71.6672C272.034 83.3871 281.178 97.6656 284.113 101.315C286.219 103.84 288.549 106.17 291.075 108.276L294.01 111.568L294.368 128.047L321.066 150.753L328.385 127.314C328.385 127.314 340.841 124.755 342.685 119.996C344.529 115.236 339.016 85.9456 337.548 80.0762C336.081 74.2068 331.697 62.8819 331.697 62.8819C331.697 62.8819 333.145 57.3887 324.735 52.253C316.325 47.1173 299.128 53.3441 299.128 53.3441Z" fill="black"/>
<mask id="mask4_2390_86" style="mask-type:luminance" maskUnits="userSpaceOnUse" x="276" y="50" width="68" height="101">
<path d="M299.128 53.3441C299.128 53.3441 284.49 59.9472 278.262 71.6672C272.034 83.3871 281.178 97.6656 284.113 101.315C286.219 103.84 288.549 106.17 291.075 108.276L294.01 111.568L294.368 128.047L321.066 150.753L328.385 127.314C328.385 127.314 340.841 124.755 342.685 119.996C344.529 115.236 339.016 85.9456 337.548 80.0762C336.081 74.2068 331.697 62.8819 331.697 62.8819C331.697 62.8819 333.145 57.3887 324.735 52.253C316.325 47.1173 299.128 53.3441 299.128 53.3441Z" fill="white"/>
</mask>
<g mask="url(#mask4_2390_86)">
<path d="M309.081 114.031C307.613 106.732 313.465 87.6944 307.199 75.109C302.176 65.0445 287.632 65.703 281.874 66.4743C280.511 68.072 279.325 69.8129 278.337 71.6664C272.109 83.3864 281.253 97.6648 284.189 101.314C286.295 103.84 288.625 106.169 291.15 108.275L294.085 111.567L294.443 128.046L301.818 134.311C301.818 132.204 301.818 130.548 301.818 129.589C301.818 126.372 316.419 126.184 320.314 124.736C324.208 123.287 310.53 121.331 309.081 114.031Z" fill="black"/>
<path opacity="0.5" d="M309.081 114.031C307.613 106.732 313.465 87.6944 307.199 75.109C302.176 65.0445 287.632 65.703 281.874 66.4743C280.511 68.072 279.325 69.8129 278.337 71.6664C272.109 83.3864 281.253 97.6648 284.189 101.314C286.295 103.84 288.625 106.169 291.15 108.275L294.085 111.567L294.443 128.046L301.818 134.311C301.818 132.204 301.818 130.548 301.818 129.589C301.818 126.372 316.419 126.184 320.314 124.736C324.208 123.287 310.53 121.331 309.081 114.031Z" fill="black"/>
</g>
</g>
<g style="mix-blend-mode:multiply" opacity="0.22">
<path d="M309.081 114.031C307.613 106.732 313.465 87.6944 307.199 75.109C302.176 65.0445 287.632 65.703 281.874 66.4743C280.511 68.072 279.325 69.8129 278.337 71.6664C272.109 83.3864 281.253 97.6648 284.189 101.314C286.295 103.84 288.625 106.169 291.15 108.275L294.085 111.567L294.443 128.046L301.818 134.311C301.818 132.204 301.818 130.548 301.818 129.589C301.818 126.372 316.419 126.184 320.314 124.736C324.208 123.287 310.53 121.331 309.081 114.031Z" fill="black"/>
</g>
</g>
<path d="M299.128 53.3441C299.128 53.3441 284.49 59.9472 278.262 71.6672C272.034 83.3871 281.178 97.6656 284.113 101.315C286.219 103.84 288.549 106.17 291.075 108.276L294.01 111.568L294.368 128.047L321.066 150.753L328.385 127.314C328.385 127.314 340.841 124.755 342.685 119.996C344.529 115.236 339.016 85.9456 337.548 80.0762C336.081 74.2068 331.697 62.8819 331.697 62.8819C331.697 62.8819 333.145 57.3887 324.735 52.253C316.325 47.1173 299.128 53.3441 299.128 53.3441Z" stroke="#263238" stroke-linecap="round" stroke-linejoin="round"/>
<path d="M303.154 112.301C303.154 112.301 304.622 118.17 307.181 119.638C313.1 122.997 319.791 124.76 326.598 124.754" stroke="#263238" stroke-linecap="round" stroke-linejoin="round"/>
<path d="M337.586 80.0742L335.385 84.1C335.385 84.1 344.171 92.1705 343.814 94.3527C343.456 96.5349 336.495 99.1309 336.495 99.1309" fill="white"/>
<mask id="mask5_2390_86" style="mask-type:luminance" maskUnits="userSpaceOnUse" x="335" y="80" width="9" height="20">
<path d="M337.586 80.0742L335.385 84.1C335.385 84.1 344.171 92.1705 343.814 94.3527C343.456 96.5349 336.495 99.1309 336.495 99.1309" fill="white"/>
</mask>
<g mask="url(#mask5_2390_86)">
<path opacity="0.15" d="M337.586 80.0742L335.385 84.1C335.385 84.1 344.171 92.1705 343.814 94.3527C343.456 96.5349 336.495 99.1309 336.495 99.1309" fill="black"/>
</g>
<path d="M337.586 80.0742L335.385 84.1C335.385 84.1 344.171 92.1705 343.814 94.3527C343.456 96.5349 336.495 99.1309 336.495 99.1309" stroke="#263238" stroke-linecap="round" stroke-linejoin="round"/>
<path d="M326.372 88.0508L326.956 89.5181L322.12 91.437L327.2 91.3241" stroke="#263238" stroke-linecap="round" stroke-linejoin="round"/>
<path d="M327.087 82.765C327.087 82.765 320.916 81.0719 318.338 86.2452" stroke="#263238" stroke-linecap="round" stroke-linejoin="round"/>
<path d="M339.882 104.266C337.072 105.07 334.168 105.5 331.246 105.545" stroke="#263238" stroke-linecap="round" stroke-linejoin="round"/>
<path d="M309.777 65.0641C319.655 59.2135 331.753 62.8631 331.753 62.8631C331.753 62.8631 333.202 57.3887 324.792 52.253C316.381 47.1173 299.147 53.3441 299.147 53.3441C299.147 53.3441 284.509 59.9472 278.281 71.6672C272.053 83.3871 281.197 97.6656 284.132 101.315C286.238 103.84 288.569 106.17 291.094 108.276L294.029 111.568V112.903C299.975 112.189 300.953 111.21 300.953 111.21C300.13 111.229 299.313 111.071 298.556 110.747C297.8 110.422 297.122 109.939 296.569 109.329C294.01 107.128 289.25 103.46 290.341 98.3428C291.433 93.2259 295.835 93.2071 298.037 95.0319C300.238 96.8567 300.238 97.2329 302.797 96.1418C305.356 95.0507 301.687 88.4476 301.687 88.4476L305.45 85.8892C309.119 83.3307 310.21 80.396 307.331 77.8376C304.453 75.2791 299.862 70.9335 309.777 65.0641Z" fill="#263238" stroke="#263238" stroke-linecap="round" stroke-linejoin="round"/>
<path d="M290.718 124.395L285.581 137.206L314.876 165.405L322.571 150.393L290.718 124.395Z" fill="white" stroke="#263238" stroke-linecap="round" stroke-linejoin="round"/>
<path d="M367.615 34.4174C367.615 34.4174 386.656 68.11 389.591 84.2132C392.526 100.316 398.02 121.555 398.02 121.555L445.998 116.062C445.998 116.062 439.037 71.4021 434.709 56.39C430.382 41.3779 429.215 38.067 429.215 38.067C429.215 38.067 375.63 32.5738 367.615 34.4174Z" fill="#263238" stroke="#263238" stroke-linecap="round" stroke-linejoin="round"/>
<path d="M374.219 146.838C374.219 146.838 376.1 133.669 376.1 132.541C376.1 131.412 375.63 112.713 375.63 112.713C375.63 112.713 382.591 97.6629 383.702 96.9669C384.812 96.2708 396.515 90.3826 397.248 92.9411C397.982 95.4995 394.69 96.6094 393.579 97.7005C392.469 98.7917 387.728 100.993 387.352 102.103C386.975 103.213 384.793 111.622 384.793 111.622C384.793 111.622 394.313 104.304 396.872 104.304C399.431 104.304 401.632 110.154 401.632 110.154C401.632 110.154 404.944 114.914 404.944 117.472C404.944 120.031 405.677 122.965 403.834 124.809C401.99 126.652 401.275 128.101 398.716 128.101C396.157 128.101 392.846 131.036 392.846 133.218C392.846 135.4 392.846 142.737 390.644 144.938C387.245 147.798 383.703 150.486 380.033 152.989L374.219 146.838Z" fill="white"/>
<mask id="mask6_2390_86" style="mask-type:luminance" maskUnits="userSpaceOnUse" x="374" y="92" width="32" height="61">
<path d="M374.219 146.838C374.219 146.838 376.1 133.669 376.1 132.541C376.1 131.412 375.63 112.713 375.63 112.713C375.63 112.713 382.591 97.6629 383.702 96.9669C384.812 96.2708 396.515 90.3826 397.248 92.9411C397.982 95.4995 394.69 96.6094 393.579 97.7005C392.469 98.7917 387.728 100.993 387.352 102.103C386.975 103.213 384.793 111.622 384.793 111.622C384.793 111.622 394.313 104.304 396.872 104.304C399.431 104.304 401.632 110.154 401.632 110.154C401.632 110.154 404.944 114.914 404.944 117.472C404.944 120.031 405.677 122.965 403.834 124.809C401.99 126.652 401.275 128.101 398.716 128.101C396.157 128.101 392.846 131.036 392.846 133.218C392.846 135.4 392.846 142.737 390.644 144.938C387.245 147.798 383.703 150.486 380.033 152.989L374.219 146.838Z" fill="white"/>
</mask>
<g mask="url(#mask6_2390_86)">
<path opacity="0.15" d="M374.219 146.838C374.219 146.838 376.1 133.669 376.1 132.541C376.1 131.412 375.63 112.713 375.63 112.713C375.63 112.713 382.591 97.6629 383.702 96.9669C384.812 96.2708 396.515 90.3826 397.248 92.9411C397.982 95.4995 394.69 96.6094 393.579 97.7005C392.469 98.7917 387.728 100.993 387.352 102.103C386.975 103.213 384.793 111.622 384.793 111.622C384.793 111.622 394.313 104.304 396.872 104.304C399.431 104.304 401.632 110.154 401.632 110.154C401.632 110.154 404.944 114.914 404.944 117.472C404.944 120.031 405.677 122.965 403.834 124.809C401.99 126.652 401.275 128.101 398.716 128.101C396.157 128.101 392.846 131.036 392.846 133.218C392.846 135.4 392.846 142.737 390.644 144.938C387.245 147.798 383.703 150.486 380.033 152.989L374.219 146.838Z" fill="black" stroke="#263238" stroke-linecap="round" stroke-linejoin="round"/>
</g>
<path d="M374.219 146.838C374.219 146.838 376.1 133.669 376.1 132.541C376.1 131.412 375.63 112.713 375.63 112.713C375.63 112.713 382.591 97.6629 383.702 96.9669C384.812 96.2708 396.515 90.3826 397.248 92.9411C397.982 95.4995 394.69 96.6094 393.579 97.7005C392.469 98.7917 387.728 100.993 387.352 102.103C386.975 103.213 384.793 111.622 384.793 111.622C384.793 111.622 394.313 104.304 396.872 104.304C399.431 104.304 401.632 110.154 401.632 110.154C401.632 110.154 404.944 114.914 404.944 117.472C404.944 120.031 405.677 122.965 403.834 124.809C401.99 126.652 401.275 128.101 398.716 128.101C396.157 128.101 392.846 131.036 392.846 133.218C392.846 135.4 392.846 142.737 390.644 144.938C387.245 147.798 383.703 150.486 380.033 152.989L374.219 146.838Z" stroke="#263238" stroke-linecap="round" stroke-linejoin="round"/>
<path d="M404.981 117.531L392.526 123.401" stroke="#263238" stroke-linecap="round" stroke-linejoin="round"/>
<path d="M401.67 110.211L389.967 117.171" stroke="#263238" stroke-linecap="round" stroke-linejoin="round"/>
<path d="M447.823 106.919C447.823 106.919 439.771 111.679 439.771 113.88C439.771 116.081 441.652 116.438 444.154 115.347C446.657 114.256 451.492 112.77 451.492 110.211C451.492 107.653 450.382 106.543 447.823 106.919Z" fill="white"/>
<mask id="mask7_2390_86" style="mask-type:luminance" maskUnits="userSpaceOnUse" x="439" y="106" width="13" height="10">
<path d="M447.823 106.919C447.823 106.919 439.771 111.679 439.771 113.88C439.771 116.081 441.652 116.438 444.154 115.347C446.657 114.256 451.492 112.77 451.492 110.211C451.492 107.653 450.382 106.543 447.823 106.919Z" fill="white"/>
</mask>
<g mask="url(#mask7_2390_86)">
<path opacity="0.15" d="M447.823 106.919C447.823 106.919 439.771 111.679 439.771 113.88C439.771 116.081 441.652 116.438 444.154 115.347C446.657 114.256 451.492 112.77 451.492 110.211C451.492 107.653 450.382 106.543 447.823 106.919Z" fill="black" stroke="#263238" stroke-linecap="round" stroke-linejoin="round"/>
</g>
<path d="M447.823 106.919C447.823 106.919 439.771 111.679 439.771 113.88C439.771 116.081 441.652 116.438 444.154 115.347C446.657 114.256 451.492 112.77 451.492 110.211C451.492 107.653 450.382 106.543 447.823 106.919Z" stroke="#263238" stroke-linecap="round" stroke-linejoin="round"/>
<path d="M446.356 101.785C446.356 101.785 438.66 103.666 438.303 106.544C437.945 109.423 447.823 107.278 450.025 106.544C452.226 105.811 452.226 100.694 446.356 101.785Z" fill="white"/>
<mask id="mask8_2390_86" style="mask-type:luminance" maskUnits="userSpaceOnUse" x="438" y="101" width="14" height="8">
<path d="M446.356 101.785C446.356 101.785 438.66 103.666 438.303 106.544C437.945 109.423 447.823 107.278 450.025 106.544C452.226 105.811 452.226 100.694 446.356 101.785Z" fill="white"/>
</mask>
<g mask="url(#mask8_2390_86)">
<path opacity="0.15" d="M446.356 101.785C446.356 101.785 438.66 103.666 438.303 106.544C437.945 109.423 447.823 107.278 450.025 106.544C452.226 105.811 452.226 100.694 446.356 101.785Z" fill="black" stroke="#263238" stroke-linecap="round" stroke-linejoin="round"/>
</g>
<path d="M446.356 101.785C446.356 101.785 438.66 103.666 438.303 106.544C437.945 109.423 447.823 107.278 450.025 106.544C452.226 105.811 452.226 100.694 446.356 101.785Z" stroke="#263238" stroke-linecap="round" stroke-linejoin="round"/>
<path d="M450.382 112.715C450.382 112.715 441.238 117.117 440.862 118.584C440.485 120.052 439.77 122.234 443.42 122.234C447.071 122.234 454.051 118.584 454.408 116.007C454.766 113.43 453.317 112.715 450.382 112.715Z" fill="white"/>
<mask id="mask9_2390_86" style="mask-type:luminance" maskUnits="userSpaceOnUse" x="440" y="112" width="15" height="11">
<path d="M450.382 112.715C450.382 112.715 441.238 117.117 440.862 118.584C440.485 120.052 439.77 122.234 443.42 122.234C447.071 122.234 454.051 118.584 454.408 116.007C454.766 113.43 453.317 112.715 450.382 112.715Z" fill="white"/>
</mask>
<g mask="url(#mask9_2390_86)">
<path opacity="0.15" d="M450.382 112.715C450.382 112.715 441.238 117.117 440.862 118.584C440.485 120.052 439.77 122.234 443.42 122.234C447.071 122.234 454.051 118.584 454.408 116.007C454.766 113.43 453.317 112.715 450.382 112.715Z" fill="black" stroke="#263238" stroke-linecap="round" stroke-linejoin="round"/>
</g>
<path d="M450.382 112.715C450.382 112.715 441.238 117.117 440.862 118.584C440.485 120.052 439.77 122.234 443.42 122.234C447.071 122.234 454.051 118.584 454.408 116.007C454.766 113.43 453.317 112.715 450.382 112.715Z" stroke="#263238" stroke-linecap="round" stroke-linejoin="round"/>
<path d="M453.261 117.906C453.261 117.906 444.794 121.782 444.456 123.08C444.117 124.378 443.44 126.315 446.826 126.315C450.213 126.315 456.648 123.08 456.987 120.822C457.325 118.565 455.971 117.906 453.261 117.906Z" fill="white"/>
<mask id="mask10_2390_86" style="mask-type:luminance" maskUnits="userSpaceOnUse" x="444" y="117" width="14" height="10">
<path d="M453.261 117.906C453.261 117.906 444.794 121.782 444.456 123.08C444.117 124.378 443.44 126.315 446.826 126.315C450.213 126.315 456.648 123.08 456.987 120.822C457.325 118.565 455.971 117.906 453.261 117.906Z" fill="white"/>
</mask>
<g mask="url(#mask10_2390_86)">
<path opacity="0.15" d="M453.261 117.906C453.261 117.906 444.794 121.782 444.456 123.08C444.117 124.378 443.44 126.315 446.826 126.315C450.213 126.315 456.648 123.08 456.987 120.822C457.325 118.565 455.971 117.906 453.261 117.906Z" fill="black" stroke="#263238" stroke-linecap="round" stroke-linejoin="round"/>
</g>
<path d="M453.261 117.906C453.261 117.906 444.794 121.782 444.456 123.08C444.117 124.378 443.44 126.315 446.826 126.315C450.213 126.315 456.648 123.08 456.987 120.822C457.325 118.565 455.971 117.906 453.261 117.906Z" stroke="#263238" stroke-linecap="round" stroke-linejoin="round"/>
<path d="M381.613 39.2148C381.613 39.2148 396.891 65.834 399.713 76.651C402.536 87.468 404.887 117.567 404.887 117.567L435.462 113.805C435.462 113.805 434.521 86.5274 430.288 73.3589C426.054 60.1904 422.762 43.2595 422.762 43.2595L381.613 39.2148Z" fill="#7D7D7D"/>
<path d="M406.957 79.3588C406.957 79.3588 403.457 85.8678 405.452 88.6332C407.446 91.3985 412.206 92.6401 412.714 93.3926C413.222 94.1451 416.722 115.422 416.722 115.422L427.484 114.425C427.484 114.425 422.235 94.6342 423.477 90.8906C424.718 87.147 427.748 83.6291 424.737 80.3746C421.727 77.1201 416.967 74.8627 413.975 75.3518C411.381 76.1815 408.99 77.5467 406.957 79.3588Z" fill="white"/>
<path d="M397.192 41.5469C397.192 41.5469 405.96 64.1215 405.207 68.0908C404.455 72.0602 402.441 78.6068 406.957 79.3781C411.473 80.1494 413.467 75.8791 414.972 76.1236C416.477 76.3682 418.98 81.1277 421.238 78.3811C423.495 75.6345 425.734 71.1196 421.99 66.6047C418.246 62.0898 415.48 59.6066 413.467 54.8471C411.93 50.91 410.592 46.8979 409.459 42.8261L397.192 41.5469Z" fill="white"/>
<path d="M285.939 158.54C285.939 158.54 291.433 158.54 298.037 164.41C304.641 170.279 328.141 194.076 328.141 194.076L373.918 144.262L388.97 158.54L334.651 238.003C332.062 238.884 329.329 239.261 326.598 239.113C322.572 238.736 261.046 208.355 261.046 208.355" fill="white"/>
<mask id="mask11_2390_86" style="mask-type:luminance" maskUnits="userSpaceOnUse" x="261" y="144" width="128" height="96">
<path d="M285.939 158.54C285.939 158.54 291.433 158.54 298.037 164.41C304.641 170.279 328.141 194.076 328.141 194.076L373.918 144.262L388.97 158.54L334.651 238.003C332.062 238.884 329.329 239.261 326.598 239.113C322.572 238.736 261.046 208.355 261.046 208.355" fill="white"/>
</mask>
<g mask="url(#mask11_2390_86)">
<path d="M319.298 226.885C311.019 226.885 283.286 211.308 274.537 204.498C271.581 202.104 269.126 199.151 267.312 195.807L261.046 208.355C261.046 208.355 322.572 238.736 326.598 239.113C329.329 239.261 332.062 238.884 334.651 238.003L373.899 180.438C359.75 194.321 325.808 226.885 319.298 226.885Z" fill="#24DA8B"/>
<path opacity="0.5" d="M319.298 226.885C311.019 226.885 283.286 211.308 274.537 204.498C271.581 202.104 269.126 199.151 267.312 195.807L261.046 208.355C261.046 208.355 322.572 238.736 326.598 239.113C329.329 239.261 332.062 238.884 334.651 238.003L373.899 180.438C359.75 194.321 325.808 226.885 319.298 226.885Z" fill="white"/>
</g>
<path d="M285.939 158.54C285.939 158.54 291.433 158.54 298.037 164.41C304.641 170.279 328.141 194.076 328.141 194.076L373.918 144.262L388.97 158.54L334.651 238.003C332.062 238.884 329.329 239.261 326.598 239.113C322.572 238.736 261.046 208.355 261.046 208.355" stroke="#263238" stroke-linecap="round" stroke-linejoin="round"/>
<path d="M285.939 221.165L265.807 220.789" stroke="#263238" stroke-linecap="round" stroke-linejoin="round"/>
<path d="M328.065 193.359C328.065 193.359 316.457 207.243 315.045 214.768" stroke="#263238" stroke-linecap="round" stroke-linejoin="round"/>
<path d="M324.453 194.793C324.453 194.793 314.575 203.729 312.223 208.432" stroke="#263238" stroke-linecap="round" stroke-linejoin="round"/>
<path d="M1.45508 615H734" stroke="#263238" stroke-linecap="round" stroke-linejoin="round"/>
</svg>
